<svg xmlns="http://www.w3.org/2000/svg" width="834" height="1194" viewBox="0 0 834 1194"><title>activity / Wireframe</title><rect width="834" height="1194" rx="28" fill="#F5F5F3"/><text x="117.0" y="30" fill="#232323" font-family="Plus Jakarta Sans, Arial, sans-serif" font-size="14" font-weight="700"><tspan x="117.0" dy="0">9:41</tspan></text><text x="766" y="30" fill="#232323" font-family="Plus Jakarta Sans, Arial, sans-serif" font-size="14" font-weight="700"><tspan x="766" dy="0">●  ▰</tspan></text><text x="117.0" y="75" fill="#646464" font-family="Plus Jakarta Sans, Arial, sans-serif" font-size="14" font-weight="700"><tspan x="117.0" dy="0">‹  Back</tspan></text><text x="117.0" y="119" fill="#232323" font-family="Plus Jakarta Sans, Arial, sans-serif" font-size="26" font-weight="700"><tspan x="117.0" dy="0">A world of colour</tspan></text><text x="117.0" y="159.4" fill="#646464" font-family="Plus Jakarta Sans, Arial, sans-serif" font-size="14" font-weight="400"><tspan x="117.0" dy="0">Notice the colours hiding in plain sight.</tspan></text><svg x="117.0" y="193.0" width="600" height="170" viewBox="0 0 300 200" fill="none" aria-hidden="true"><rect x="67" y="79" width="70" height="70" rx="14" fill="#333333" opacity=".22"/><circle cx="184" cy="66" r="35" fill="#333333" opacity=".48"/><path d="m182 114 36 61h-72Z" fill="#333333" opacity=".7"/><path d="m88 46 5-10m25 13 9-8m-69 17-8-6" stroke="#333333" stroke-width="3" stroke-linecap="round" opacity=".5"/></svg><text x="117.0" y="397.0" fill="#646464" font-family="Plus Jakarta Sans, Arial, sans-serif" font-size="14" font-weight="400"><tspan x="117.0" dy="0">Find an object in a colour you choose. A playful moment to explore cognitive</tspan><tspan x="117.0" dy="19.599999999999998">development together.</tspan></text><rect x="117.0" y="439.2" width="600" height="70.80000000000001" rx="16" fill="#FFFFFF" stroke="#DCDCD8"/><text x="133.0" y="463.2" fill="#232323" font-family="Plus Jakarta Sans, Arial, sans-serif" font-size="18" font-weight="700"><tspan x="133.0" dy="0">What you’ll need</tspan></text><text x="133.0" y="491.4" fill="#646464" font-family="Plus Jakarta Sans, Arial, sans-serif" font-size="14" font-weight="400"><tspan x="133.0" dy="0">Safe household objects</tspan></text><svg x="117.0" y="520.0" width="600" height="170" viewBox="0 0 300 200" fill="none" aria-hidden="true"><rect x="83" y="20" width="134" height="160" rx="13" fill="#333333" opacity=".13"/><path d="M97 20v160" stroke="#333333" opacity=".35" stroke-width="2"/><circle cx="158" cy="81" r="31" fill="#333333" opacity=".16"/><path d="M158 111V75m0 20c-16 0-23-8-23-19 14 0 23 7 23 19Zm0-12c0-16 9-25 24-24 0 15-9 24-24 24Z" stroke="#333333" stroke-width="3"/><path d="M118 137h72m-59 13h46" stroke="#333333" stroke-width="4" stroke-linecap="round" opacity=".45"/></svg><rect x="117.0" y="703.0" width="600" height="68.0" rx="16" fill="#FFFFFF" stroke="#DCDCD8"/><text x="133.0" y="727.0" fill="#232323" font-family="Plus Jakarta Sans, Arial, sans-serif" font-size="16" font-weight="700"><tspan x="133.0" dy="0">Activity video · Play</tspan></text><text x="133.0" y="752.4" fill="#646464" font-family="Plus Jakarta Sans, Arial, sans-serif" font-size="14" font-weight="400"><tspan x="133.0" dy="0">youtube.com/watch?v=r_kmNk3bcPQ</tspan></text><text x="117.0" y="807.0" fill="#232323" font-family="Plus Jakarta Sans, Arial, sans-serif" font-size="16" font-weight="700"><tspan x="117.0" dy="0">● Guidance · Three steps together</tspan></text><text x="117.0" y="854.4" fill="#232323" font-family="Plus Jakarta Sans, Arial, sans-serif" font-size="16" font-weight="700"><tspan x="117.0" dy="0">○ Individual · Preset timer</tspan></text><rect x="117.0" y="881.8" width="600" height="52" rx="16" fill="#333333"/><text x="133.0" y="914.8" fill="#FFFFFF" font-family="Plus Jakarta Sans, Arial, sans-serif" font-size="16" font-weight="700"><tspan x="133.0" dy="0">Start activity</tspan></text></svg>