<svg xmlns="http://www.w3.org/2000/svg" width="390" height="844" viewBox="0 0 390 844"><title>celebration / Light</title><rect width="390" height="844" rx="28" fill="#FAF8F4"/><text x="16.0" y="30" fill="#282133" font-family="Plus Jakarta Sans, Arial, sans-serif" font-size="14" font-weight="700"><tspan x="16.0" dy="0">9:41</tspan></text><text x="322" y="30" fill="#282133" font-family="Plus Jakarta Sans, Arial, sans-serif" font-size="14" font-weight="700"><tspan x="322" dy="0">●  ▰</tspan></text><text x="16.0" y="75" fill="#6D6479" font-family="Plus Jakarta Sans, Arial, sans-serif" font-size="14" font-weight="700"><tspan x="16.0" dy="0">‹  Back</tspan></text><text x="16.0" y="119" fill="#282133" font-family="Plus Jakarta Sans, Arial, sans-serif" font-size="26" font-weight="700"><tspan x="16.0" dy="0">A little growth,</tspan><tspan x="16.0" dy="36.4">together.</tspan></text><text x="16.0" y="195.8" fill="#6D6479" font-family="Plus Jakarta Sans, Arial, sans-serif" font-size="14" font-weight="400"><tspan x="16.0" dy="0">Every moment you share makes a difference.</tspan></text><svg x="16.0" y="229.4" width="358" height="170" viewBox="0 0 300 200" fill="none" aria-hidden="true"><circle cx="150" cy="94" r="77" fill="#7450AA" opacity=".06"/><path d="M118 145h64l-9 40h-46z" fill="#7450AA" opacity=".18"/><g class="grow"><path d="M150 147V65" stroke="#7450AA" stroke-width="5" stroke-linecap="round"/><path d="M149 113c-34 0-48-16-43-39 27 0 43 14 43 39Z" fill="#7450AA" opacity=".65"/><path d="M151 90c0-29 17-45 43-41 0 26-17 43-43 41Z" fill="#7450AA" opacity=".85"/><path d="M151 132c25 0 40-13 37-33-24 0-38 12-37 33Z" fill="#7450AA" opacity=".45"/></g><rect x="114" y="143" width="72" height="10" rx="5" fill="#7450AA" opacity=".75"/></svg><text x="16.0" y="433.4" fill="#6D6479" font-family="Plus Jakarta Sans, Arial, sans-serif" font-size="14" font-weight="400"><tspan x="16.0" dy="0">One completed activity = one growth stage,</tspan><tspan x="16.0" dy="19.599999999999998">adding one new leaf.</tspan></text><text x="16.0" y="496.59999999999997" fill="#6D6479" font-family="Plus Jakarta Sans, Arial, sans-serif" font-size="14" font-weight="400"><tspan x="16.0" dy="0">One completed activity adds one growth stage.</tspan></text><rect x="16.0" y="526.1999999999999" width="358" height="52" rx="16" fill="#7450AA"/><text x="32.0" y="559.1999999999999" fill="#FFFFFF" font-family="Plus Jakarta Sans, Arial, sans-serif" font-size="16" font-weight="700"><tspan x="32.0" dy="0">Continue to feedback</tspan></text></svg>