<svg xmlns="http://www.w3.org/2000/svg" width="390" height="1027" viewBox="0 0 390 1027"><title>reader-wonders-3 / Light</title><rect width="390" height="1027" rx="28" fill="#FAF8F4"/><text x="16.0" y="30" fill="#282133" font-family="Plus Jakarta Sans, Arial, sans-serif" font-size="14" font-weight="700"><tspan x="16.0" dy="0">9:41</tspan></text><text x="322" y="30" fill="#282133" font-family="Plus Jakarta Sans, Arial, sans-serif" font-size="14" font-weight="700"><tspan x="322" dy="0">●  ▰</tspan></text><text x="16.0" y="75" fill="#6D6479" font-family="Plus Jakarta Sans, Arial, sans-serif" font-size="14" font-weight="700"><tspan x="16.0" dy="0">‹  Back</tspan></text><text x="16.0" y="119" fill="#282133" font-family="Plus Jakarta Sans, Arial, sans-serif" font-size="26" font-weight="700"><tspan x="16.0" dy="0">A pocketful of wonders</tspan></text><text x="16.0" y="159.4" fill="#6D6479" font-family="Plus Jakarta Sans, Arial, sans-serif" font-size="14" font-weight="400"><tspan x="16.0" dy="0">Chapter 3 of 3 · Wonders to remember</tspan></text><svg x="16.0" y="193.0" width="358" height="170" viewBox="0 0 300 200" fill="none" aria-hidden="true"><rect x="83" y="20" width="134" height="160" rx="13" fill="#7450AA" opacity=".13"/><path d="M97 20v160" stroke="#7450AA" opacity=".35" stroke-width="2"/><circle cx="158" cy="81" r="31" fill="#7450AA" opacity=".16"/><path d="M158 111V75m0 20c-16 0-23-8-23-19 14 0 23 7 23 19Zm0-12c0-16 9-25 24-24 0 15-9 24-24 24Z" stroke="#7450AA" stroke-width="3"/><path d="M118 137h72m-59 13h46" stroke="#7450AA" stroke-width="4" stroke-linecap="round" opacity=".45"/></svg><rect x="103.0" y="383.0" width="58" height="62" rx="10" fill="#EFE8F6" stroke="#7450AA" stroke-width="3"/><svg x="105.0" y="385.0" width="54" height="58" viewBox="0 0 300 200" fill="none" aria-hidden="true"><rect x="83" y="20" width="134" height="160" rx="13" fill="#7450AA" opacity=".13"/><path d="M97 20v160" stroke="#7450AA" opacity=".35" stroke-width="2"/><circle cx="158" cy="81" r="31" fill="#7450AA" opacity=".16"/><path d="M158 111V75m0 20c-16 0-23-8-23-19 14 0 23 7 23 19Zm0-12c0-16 9-25 24-24 0 15-9 24-24 24Z" stroke="#7450AA" stroke-width="3"/><path d="M118 137h72m-59 13h46" stroke="#7450AA" stroke-width="4" stroke-linecap="round" opacity=".45"/></svg><rect x="164.0" y="383.0" width="58" height="62" rx="10" fill="#EFE8F6" stroke="#E6E0EC" stroke-width="1"/><svg x="166.0" y="385.0" width="54" height="58" viewBox="0 0 300 200" fill="none" aria-hidden="true"><rect x="83" y="20" width="134" height="160" rx="13" fill="#7450AA" opacity=".13"/><path d="M97 20v160" stroke="#7450AA" opacity=".35" stroke-width="2"/><circle cx="158" cy="81" r="31" fill="#7450AA" opacity=".16"/><path d="M158 111V75m0 20c-16 0-23-8-23-19 14 0 23 7 23 19Zm0-12c0-16 9-25 24-24 0 15-9 24-24 24Z" stroke="#7450AA" stroke-width="3"/><path d="M118 137h72m-59 13h46" stroke="#7450AA" stroke-width="4" stroke-linecap="round" opacity=".45"/></svg><rect x="225.0" y="383.0" width="58" height="62" rx="10" fill="#EFE8F6" stroke="#E6E0EC" stroke-width="1"/><svg x="227.0" y="385.0" width="54" height="58" viewBox="0 0 300 200" fill="none" aria-hidden="true"><rect x="83" y="20" width="134" height="160" rx="13" fill="#7450AA" opacity=".13"/><path d="M97 20v160" stroke="#7450AA" opacity=".35" stroke-width="2"/><circle cx="158" cy="81" r="31" fill="#7450AA" opacity=".16"/><path d="M158 111V75m0 20c-16 0-23-8-23-19 14 0 23 7 23 19Zm0-12c0-16 9-25 24-24 0 15-9 24-24 24Z" stroke="#7450AA" stroke-width="3"/><path d="M118 137h72m-59 13h46" stroke="#7450AA" stroke-width="4" stroke-linecap="round" opacity=".45"/></svg><text x="16.0" y="467.0" fill="#6D6479" font-family="Plus Jakarta Sans, Arial, sans-serif" font-size="12" font-weight="400"><tspan x="16.0" dy="0">Full view · Two alternate views</tspan></text><text x="16.0" y="517.8" fill="#6D6479" font-family="Plus Jakarta Sans, Arial, sans-serif" font-size="14" font-weight="400"><tspan x="16.0" dy="0">Each image automatically shows its own</tspan><tspan x="16.0" dy="19.599999999999998">alternate views at the bottom. Swipe past</tspan><tspan x="16.0" dy="19.599999999999998">image 3 for Go to next chapter / Go back.</tspan></text><rect x="16.0" y="579.6" width="358" height="70.8" rx="16" fill="#FFFFFF" stroke="#E6E0EC"/><text x="32.0" y="603.6" fill="#282133" font-family="Plus Jakarta Sans, Arial, sans-serif" font-size="16" font-weight="700"><tspan x="32.0" dy="0">Previous page     Page 1 of 3</tspan><tspan x="32.0" dy="22.4">Next page</tspan></text><svg x="16.0" y="660.4" width="358" height="170" viewBox="0 0 300 200" fill="none" aria-hidden="true"><rect x="83" y="20" width="134" height="160" rx="13" fill="#7450AA" opacity=".13"/><path d="M97 20v160" stroke="#7450AA" opacity=".35" stroke-width="2"/><circle cx="158" cy="81" r="31" fill="#7450AA" opacity=".16"/><path d="M158 111V75m0 20c-16 0-23-8-23-19 14 0 23 7 23 19Zm0-12c0-16 9-25 24-24 0 15-9 24-24 24Z" stroke="#7450AA" stroke-width="3"/><path d="M118 137h72m-59 13h46" stroke="#7450AA" stroke-width="4" stroke-linecap="round" opacity=".45"/></svg><rect x="16.0" y="843.4" width="358" height="68.0" rx="16" fill="#FFFFFF" stroke="#E6E0EC"/><text x="32.0" y="867.4" fill="#282133" font-family="Plus Jakarta Sans, Arial, sans-serif" font-size="16" font-weight="700"><tspan x="32.0" dy="0">Chapter background music · Play</tspan></text><text x="32.0" y="892.8" fill="#6D6479" font-family="Plus Jakarta Sans, Arial, sans-serif" font-size="14" font-weight="400"><tspan x="32.0" dy="0">youtube.com/watch?v=NDFqrbv6hkg</tspan></text></svg>