<svg xmlns="http://www.w3.org/2000/svg" width="390" height="1020" viewBox="0 0 390 1020"><title>story-shine / Light</title><rect width="390" height="1020" rx="28" fill="#FAF8F4"/><text x="16.0" y="30" fill="#282133" font-family="Plus Jakarta Sans, Arial, sans-serif" font-size="14" font-weight="700"><tspan x="16.0" dy="0">9:41</tspan></text><text x="322" y="30" fill="#282133" font-family="Plus Jakarta Sans, Arial, sans-serif" font-size="14" font-weight="700"><tspan x="322" dy="0">●  ▰</tspan></text><text x="16.0" y="75" fill="#6D6479" font-family="Plus Jakarta Sans, Arial, sans-serif" font-size="14" font-weight="700"><tspan x="16.0" dy="0">‹  Back</tspan></text><svg xmlns="http://www.w3.org/2000/svg" x="95.0" y="119" width="200" height="266.6666666666667" viewBox="0 0 180 240" role="img" aria-label="Together we shine cover"><rect width="180" height="240" rx="10" fill="#CCDCD9"/><rect x="8" width="3" height="240" fill="#487C76" opacity=".13"/><circle cx="95" cy="117" r="68" fill="#FFF1C9" opacity=".22"/><text x="94" y="28" text-anchor="middle" font-family="Arial,sans-serif" font-size="8" letter-spacing="2" fill="#487C76">LITTLE LEGACY</text><path d="m90 67 10 29 31 2-24 19 7 30-24-18-25 18 8-30-25-19 31-2Z" fill="#FFF1C9"/><path d="m37 132 5 12 13 2-10 8 2 13-10-7-11 7 3-13-10-8 13-2Zm106-57 4 10 11 2-8 7 2 11-9-6-9 6 3-11-9-7 11-2Z" fill="#487C76" opacity=".65"/><path d="M70 204h40" stroke="#487C76" stroke-width="1" opacity=".45"/><text x="93" y="223" text-anchor="middle" font-family="Arial,sans-serif" font-size="8" letter-spacing="1" fill="#487C76">KINDNESS</text></svg><text x="16.0" y="417.6666666666667" fill="#282133" font-family="Plus Jakarta Sans, Arial, sans-serif" font-size="26" font-weight="700"><tspan x="16.0" dy="0">Together we shine</tspan></text><text x="16.0" y="464.06666666666666" fill="#6D6479" font-family="Plus Jakarta Sans, Arial, sans-serif" font-size="14" font-weight="400"><tspan x="16.0" dy="0">Kindness · 3 chapters</tspan></text><text x="16.0" y="497.66666666666663" fill="#282133" font-family="Plus Jakarta Sans, Arial, sans-serif" font-size="16" font-weight="400"><tspan x="16.0" dy="0">Three little stars discover that helping</tspan><tspan x="16.0" dy="22.4">one another makes the night a little</tspan><tspan x="16.0" dy="22.4">brighter.</tspan></text><text x="16.0" y="604.8666666666666" fill="#282133" font-family="Plus Jakarta Sans, Arial, sans-serif" font-size="20" font-weight="700"><tspan x="16.0" dy="0">Chapters</tspan></text><rect x="16.0" y="628.8666666666666" width="358" height="64" rx="16" fill="#FFFFFF" stroke="#E6E0EC"/><text x="32.0" y="667.8666666666666" fill="#282133" font-family="Plus Jakarta Sans, Arial, sans-serif" font-size="16" font-weight="700"><tspan x="32.0" dy="0">01   Three little stars</tspan></text><rect x="16.0" y="704.8666666666666" width="358" height="64" rx="16" fill="#FFFFFF" stroke="#E6E0EC"/><text x="32.0" y="743.8666666666666" fill="#282133" font-family="Plus Jakarta Sans, Arial, sans-serif" font-size="16" font-weight="700"><tspan x="32.0" dy="0">02   A helping sparkle</tspan></text><rect x="16.0" y="780.8666666666666" width="358" height="64" rx="16" fill="#FFFFFF" stroke="#E6E0EC"/><text x="32.0" y="819.8666666666666" fill="#282133" font-family="Plus Jakarta Sans, Arial, sans-serif" font-size="16" font-weight="700"><tspan x="32.0" dy="0">03   Our bright night</tspan></text><rect x="16.0" y="856.8666666666666" width="358" height="52" rx="16" fill="#7450AA"/><text x="32.0" y="889.8666666666666" fill="#FFFFFF" font-family="Plus Jakarta Sans, Arial, sans-serif" font-size="16" font-weight="700"><tspan x="32.0" dy="0">Start reading</tspan></text></svg>